<svg width="39" height="39" viewBox="0 0 39 39" fill="none" xmlns="http://www.w3.org/2000/svg">
<path d="M19.1578 38.3157C29.7384 38.3157 38.3157 29.7384 38.3157 19.1578C38.3157 8.57726 29.7384 0 19.1578 0C8.57726 0 0 8.57726 0 19.1578C0 29.7384 8.57726 38.3157 19.1578 38.3157Z" fill="#EB5747"/>
<path d="M27.9266 11.192L26.7301 9.99655C26.5033 9.76919 26.1953 9.64142 25.8741 9.64142C25.553 9.64142 25.245 9.76919 25.0181 9.99655L18.8765 16.1381L12.734 9.99655C12.5071 9.76919 12.1991 9.64142 11.878 9.64142C11.5568 9.64142 11.2488 9.76919 11.022 9.99655L9.8265 11.192C9.59914 11.4189 9.47137 11.7268 9.47137 12.048C9.47137 12.3692 9.59914 12.6772 9.8265 12.904L15.9681 19.0466L9.8265 25.1882C9.59933 25.4153 9.4717 25.7234 9.4717 26.0447C9.4717 26.3659 9.59933 26.674 9.8265 26.9012L11.022 28.0966C11.4949 28.569 12.2611 28.569 12.734 28.0966L18.8765 21.9511L25.0181 28.0927C25.491 28.5651 26.2572 28.5651 26.7301 28.0927L27.9266 26.8972C28.3991 26.424 28.3991 25.6575 27.9266 25.1842L21.784 19.0427L27.9266 12.9001C28.3964 12.4276 28.3964 11.6644 27.9266 11.192Z" fill="white"/>
</svg>
