<svg width="233" height="38" viewBox="0 0 233 38" fill="none" xmlns="http://www.w3.org/2000/svg">
<path d="M17.7698 1.08309L13.1698 10.7639C12.9379 11.253 12.48 11.5964 11.9457 11.6821L1.37792 13.3684C0.762605 13.4689 0.25722 13.9091 0.0732168 14.5048C-0.110787 15.1005 0.0583133 15.749 0.509765 16.179L8.27631 23.5395C8.66714 23.9119 8.85137 24.4518 8.76972 24.9854L7.12085 35.5438C7.02166 36.1615 7.28264 36.7818 7.79359 37.1428C8.30455 37.5037 8.97639 37.5425 9.52545 37.2426L18.9284 32.1305C19.4027 31.8721 19.9739 31.8639 20.4554 32.1087L29.9958 36.9553C30.5531 37.2378 31.2223 37.1796 31.7226 36.8053C32.2228 36.431 32.4673 35.8052 32.3535 35.1909L30.3986 24.67C30.2994 24.1386 30.4675 23.5922 30.8483 23.2085L38.4056 15.6325C38.8471 15.1923 39.0007 14.5398 38.802 13.9488C38.6033 13.3579 38.0865 12.9308 37.4688 12.8469L26.8511 11.4572C26.3149 11.3876 25.8476 11.0581 25.6019 10.5766L20.7303 1.04561C20.4495 0.480179 19.8695 0.125687 19.2382 0.133677C18.607 0.141668 18.0362 0.510727 17.7698 1.08309Z" fill="#FCD269"/>
<path d="M66.301 1.08309L61.7011 10.7639C61.4692 11.253 61.0113 11.5964 60.4769 11.6821L49.9092 13.3684C49.2939 13.4689 48.7885 13.9091 48.6045 14.5048C48.4205 15.1005 48.5896 15.749 49.041 16.179L56.8076 23.5395C57.1984 23.9119 57.3826 24.4518 57.301 24.9854L55.6521 35.5438C55.5529 36.1615 55.8139 36.7818 56.3248 37.1428C56.8358 37.5037 57.5076 37.5425 58.0567 37.2426L67.4596 32.1305C67.934 31.8721 68.5051 31.8639 68.9867 32.1087L78.527 36.9553C79.0843 37.2378 79.7536 37.1796 80.2538 36.8053C80.754 36.431 80.9986 35.8052 80.8848 35.1909L78.9299 24.67C78.8306 24.1386 78.9987 23.5922 79.3796 23.2085L86.9369 15.6325C87.3784 15.1923 87.532 14.5398 87.3332 13.9488C87.1345 13.3579 86.6178 12.9308 86 12.8469L75.3823 11.4572C74.8462 11.3876 74.3789 11.0581 74.1332 10.5766L69.2615 1.04561C68.9807 0.480179 68.4007 0.125687 67.7695 0.133677C67.1382 0.141668 66.5674 0.510727 66.301 1.08309Z" fill="#FCD269"/>
<path d="M114.824 1.08309L110.225 10.7639C109.993 11.253 109.535 11.5964 109 11.6821L98.4326 13.3684C97.8173 13.4689 97.3119 13.9091 97.1279 14.5048C96.9439 15.1005 97.113 15.749 97.5645 16.179L105.331 23.5395C105.722 23.9119 105.906 24.4518 105.824 24.9854L104.176 35.5438C104.076 36.1615 104.337 36.7818 104.848 37.1428C105.359 37.5037 106.031 37.5425 106.58 37.2426L115.983 32.1305C116.457 31.8721 117.029 31.8639 117.51 32.1087L127.05 36.9553C127.608 37.2378 128.277 37.1796 128.777 36.8053C129.277 36.431 129.522 35.8052 129.408 35.1909L127.453 24.67C127.354 24.1386 127.522 23.5922 127.903 23.2085L135.46 15.6325C135.902 15.1923 136.055 14.5398 135.857 13.9488C135.658 13.3579 135.141 12.9308 134.523 12.8469L123.906 11.4572C123.37 11.3876 122.902 11.0581 122.657 10.5766L117.785 1.04561C117.504 0.480179 116.924 0.125687 116.293 0.133677C115.662 0.141668 115.091 0.510727 114.824 1.08309Z" fill="#FCD269"/>
<path d="M163.356 1.08309L158.756 10.7639C158.524 11.253 158.066 11.5964 157.532 11.6821L146.964 13.3684C146.349 13.4689 145.843 13.9091 145.659 14.5048C145.475 15.1005 145.644 15.749 146.096 16.179L153.862 23.5395C154.253 23.9119 154.437 24.4518 154.356 24.9854L152.707 35.5438C152.608 36.1615 152.869 36.7818 153.38 37.1428C153.89 37.5037 154.562 37.5425 155.111 37.2426L164.514 32.1305C164.989 31.8721 165.56 31.8639 166.041 32.1087L175.582 36.9553C176.139 37.2378 176.808 37.1796 177.309 36.8053C177.809 36.431 178.053 35.8052 177.939 35.1909L175.985 24.67C175.885 24.1386 176.053 23.5922 176.434 23.2085L183.992 15.6325C184.433 15.1923 184.587 14.5398 184.388 13.9488C184.189 13.3579 183.672 12.9308 183.055 12.8469L172.437 11.4572C171.901 11.3876 171.434 11.0581 171.188 10.5766L166.316 1.04561C166.035 0.480179 165.455 0.125687 164.824 0.133677C164.193 0.141668 163.622 0.510727 163.356 1.08309Z" fill="#FCD269"/>
<path d="M211.879 1.08309L207.279 10.7639C207.047 11.253 206.589 11.5964 206.055 11.6821L195.487 13.3684C194.872 13.4689 194.367 13.9091 194.183 14.5048C193.999 15.1005 194.168 15.749 194.619 16.179L202.386 23.5395C202.777 23.9119 202.961 24.4518 202.879 24.9854L201.23 35.5438C201.131 36.1615 201.392 36.7818 201.903 37.1428C202.414 37.5037 203.086 37.5425 203.635 37.2426L213.038 32.1305C213.512 31.8721 214.083 31.8639 214.565 32.1087L224.105 36.9553C224.662 37.2378 225.332 37.1796 225.832 36.8053C226.332 36.431 226.577 35.8052 226.463 35.1909L224.508 24.67C224.409 24.1386 224.577 23.5922 224.958 23.2085L232.515 15.6325C232.956 15.1923 233.11 14.5398 232.911 13.9488C232.713 13.3579 232.196 12.9308 231.578 12.8469L220.96 11.4572C220.424 11.3876 219.957 11.0581 219.711 10.5766L214.84 1.04561C214.559 0.480179 213.979 0.125687 213.348 0.133677C212.716 0.141668 212.146 0.510727 211.879 1.08309Z" fill="#FCD269"/>
</svg>
