<svg width="190" height="30" viewBox="0 0 190 30" fill="none" xmlns="http://www.w3.org/2000/svg">
<path d="M13.8267 0.738839L10.2474 8.27151C10.067 8.65202 9.71073 8.91923 9.29492 8.9859L1.07216 10.298C0.593383 10.3762 0.200143 10.7187 0.05697 11.1822C-0.086203 11.6458 0.0453736 12.1504 0.396648 12.4849L6.43979 18.2122C6.7439 18.502 6.88725 18.922 6.82372 19.3372L5.54073 27.5527C5.46356 28.0333 5.66662 28.516 6.0642 28.7969C6.46177 29.0778 6.98453 29.1079 7.41175 28.8746L14.7282 24.8968C15.0972 24.6958 15.5417 24.6894 15.9164 24.8798L23.3397 28.651C23.7733 28.8708 24.2941 28.8256 24.6833 28.5343C25.0726 28.243 25.2628 27.7561 25.1743 27.2781L23.6532 19.0918C23.5759 18.6783 23.7067 18.2532 24.0031 17.9546L29.8834 12.0597C30.2269 11.7172 30.3465 11.2095 30.1918 10.7497C30.0372 10.2899 29.6351 9.95756 29.1544 9.89225L20.8928 8.81095C20.4757 8.75675 20.112 8.5004 19.9208 8.12572L16.1302 0.70968C15.9117 0.269716 15.4605 -0.00611454 14.9693 0.000102953C14.4781 0.00632045 14.0339 0.293485 13.8267 0.738839Z" fill="#FCD269"/>
<path d="M53.7617 0.738839L50.1825 8.27151C50.0021 8.65202 49.6458 8.91923 49.23 8.9859L41.0072 10.298C40.5284 10.3762 40.1352 10.7187 39.992 11.1822C39.8489 11.6458 39.9804 12.1504 40.3317 12.4849L46.3749 18.2122C46.679 18.502 46.8223 18.922 46.7588 19.3372L45.4758 27.5527C45.3986 28.0333 45.6017 28.516 45.9993 28.7969C46.3968 29.0778 46.9196 29.1079 47.3468 28.8746L54.6632 24.8968C55.0323 24.6958 55.4767 24.6894 55.8514 24.8798L63.2748 28.651C63.7084 28.8708 64.2292 28.8256 64.6184 28.5343C65.0076 28.243 65.1979 27.7561 65.1093 27.2781L63.5882 19.0918C63.511 18.6783 63.6418 18.2532 63.9381 17.9546L69.8185 12.0597C70.162 11.7172 70.2815 11.2095 70.1269 10.7497C69.9722 10.2899 69.5702 9.95756 69.0895 9.89225L60.8279 8.81095C60.4107 8.75675 60.0471 8.5004 59.8559 8.12572L56.0653 0.70968C55.8468 0.269716 55.3955 -0.00611454 54.9043 0.000102953C54.4132 0.00632045 53.969 0.293485 53.7617 0.738839Z" fill="#FCD269"/>
<path d="M93.6978 0.738839L90.1185 8.27151C89.9381 8.65202 89.5818 8.91923 89.166 8.9859L80.9433 10.298C80.4645 10.3762 80.0712 10.7187 79.9281 11.1822C79.7849 11.6458 79.9165 12.1504 80.2677 12.4849L86.3109 18.2122C86.615 18.502 86.7583 18.922 86.6948 19.3372L85.4118 27.5527C85.3346 28.0333 85.5377 28.516 85.9353 28.7969C86.3329 29.0778 86.8556 29.1079 87.2828 28.8746L94.5993 24.8968C94.9683 24.6958 95.4128 24.6894 95.7875 24.8798L103.211 28.651C103.644 28.8708 104.165 28.8256 104.554 28.5343C104.944 28.243 105.134 27.7561 105.045 27.2781L103.524 19.0918C103.447 18.6783 103.578 18.2532 103.874 17.9546L109.755 12.0597C110.098 11.7172 110.218 11.2095 110.063 10.7497C109.908 10.2899 109.506 9.95756 109.026 9.89225L100.764 8.81095C100.347 8.75675 99.9831 8.5004 99.7919 8.12572L96.0013 0.70968C95.7828 0.269716 95.3315 -0.00611454 94.8404 0.000102953C94.3492 0.00632045 93.905 0.293485 93.6978 0.738839Z" fill="#FCD269"/>
<path d="M133.633 0.738839L130.054 8.27151C129.874 8.65202 129.517 8.91923 129.102 8.9859L120.879 10.298C120.4 10.3762 120.007 10.7187 119.864 11.1822C119.72 11.6458 119.852 12.1504 120.203 12.4849L126.246 18.2122C126.551 18.502 126.694 18.922 126.63 19.3372L125.347 27.5527C125.27 28.0333 125.473 28.516 125.871 28.7969C126.268 29.0778 126.791 29.1079 127.218 28.8746L134.535 24.8968C134.904 24.6958 135.348 24.6894 135.723 24.8798L143.146 28.651C143.58 28.8708 144.101 28.8256 144.49 28.5343C144.879 28.243 145.069 27.7561 144.981 27.2781L143.46 19.0918C143.383 18.6783 143.513 18.2532 143.81 17.9546L149.69 12.0597C150.034 11.7172 150.153 11.2095 149.998 10.7497C149.844 10.2899 149.442 9.95756 148.961 9.89225L140.699 8.81095C140.282 8.75675 139.919 8.5004 139.727 8.12572L135.937 0.70968C135.718 0.269716 135.267 -0.00611454 134.776 0.000102953C134.285 0.00632045 133.841 0.293485 133.633 0.738839Z" fill="#FCD269"/>
<mask id="mask0_2700_713" style="mask-type:alpha" maskUnits="userSpaceOnUse" x="159" y="0" width="31" height="30">
<path d="M173.568 0.738839L169.989 8.27151C169.808 8.65202 169.452 8.91923 169.036 8.9859L160.814 10.298C160.335 10.3762 159.942 10.7187 159.798 11.1822C159.655 11.6458 159.787 12.1504 160.138 12.4849L166.181 18.2122C166.485 18.502 166.629 18.922 166.565 19.3372L165.282 27.5527C165.205 28.0333 165.408 28.516 165.806 28.7969C166.203 29.0778 166.726 29.1079 167.153 28.8746L174.47 24.8968C174.839 24.6958 175.283 24.6894 175.658 24.8798L183.081 28.651C183.515 28.8708 184.036 28.8256 184.425 28.5343C184.814 28.243 185.004 27.7561 184.916 27.2781L183.395 19.0918C183.317 18.6783 183.448 18.2532 183.745 17.9546L189.625 12.0597C189.968 11.7172 190.088 11.2095 189.933 10.7497C189.779 10.2899 189.377 9.95756 188.896 9.89225L180.634 8.81095C180.217 8.75675 179.853 8.5004 179.662 8.12572L175.872 0.709681C175.653 0.269716 175.202 -0.00611454 174.711 0.000102953C174.22 0.00632045 173.775 0.293485 173.568 0.738839Z" fill="#FCD269"/>
</mask>
<g mask="url(#mask0_2700_713)">
<rect x="156.466" width="17.4742" height="30.5799" fill="#FCD269"/>
</g>
<mask id="mask1_2700_713" style="mask-type:alpha" maskUnits="userSpaceOnUse" x="159" y="0" width="31" height="30">
<path d="M174.061 0.973206L174.061 0.973199L170.482 8.50548C170.482 8.50556 170.482 8.50565 170.482 8.50574C170.482 8.50578 170.482 8.50583 170.482 8.50587C170.225 9.04873 169.716 9.42995 169.123 9.52508L169.122 9.52515L160.902 10.837C160.901 10.837 160.901 10.8371 160.901 10.8371C160.627 10.8821 160.402 11.0782 160.32 11.3434C160.238 11.6087 160.313 11.8976 160.514 12.0892C160.515 12.0893 160.515 12.0894 160.515 12.0895L166.557 17.8159L166.558 17.8169C166.991 18.2297 167.195 18.8282 167.105 19.4198L167.105 19.4215L165.822 27.637L165.821 27.6393C165.777 27.9142 165.893 28.1902 166.121 28.3509L165.806 28.7969L166.121 28.3509C166.348 28.5115 166.647 28.5288 166.891 28.3953L166.892 28.3948L174.208 24.4173C174.735 24.1302 175.37 24.1211 175.905 24.393L183.328 28.164L174.061 0.973206ZM174.061 0.973206L174.063 0.969244M174.061 0.973206L174.063 0.969244M174.063 0.969244C174.182 0.714165 174.436 0.549689 174.718 0.546128C174.999 0.542567 175.257 0.700551 175.383 0.952544L175.383 0.95256M174.063 0.969244L175.383 0.95256M183.357 17.57L183.358 17.569L189.238 11.6741L189.239 11.673C189.436 11.4771 189.504 11.1867 189.416 10.9237C189.327 10.6611 189.098 10.4712 188.824 10.4335C188.823 10.4334 188.823 10.4334 188.822 10.4333L180.564 9.35246L183.357 17.57ZM183.357 17.57C182.934 17.9959 182.748 18.6022 182.858 19.1921L184.379 27.3776C184.43 27.6514 184.321 27.9303 184.098 28.0971C183.875 28.2638 183.577 28.2898 183.328 28.1642L183.357 17.57ZM175.383 0.95256L175.385 0.958214M175.383 0.95256L175.385 0.958214M175.385 0.958214L179.176 8.37392M175.385 0.958214L179.176 8.37392M179.176 8.37392C179.449 8.90884 179.968 9.27486 180.563 9.3524L179.176 8.37392Z" fill="#FCD269" stroke="#FCD269" stroke-width="1.09214"/>
</mask>
<g mask="url(#mask1_2700_713)">
<rect x="173.94" width="17.4742" height="30.5799" fill="#121316" fill-opacity="0.3"/>
<path d="M174.061 0.973206L174.061 0.973199L170.482 8.50548C170.482 8.50556 170.482 8.50565 170.482 8.50574C170.482 8.50578 170.482 8.50583 170.482 8.50587C170.225 9.04873 169.716 9.42995 169.123 9.52508L169.122 9.52515L160.902 10.837C160.901 10.837 160.901 10.8371 160.901 10.8371C160.627 10.8821 160.402 11.0782 160.32 11.3434C160.238 11.6087 160.313 11.8976 160.514 12.0892C160.515 12.0893 160.515 12.0894 160.515 12.0895L166.557 17.8159L166.558 17.8169C166.991 18.2297 167.195 18.8282 167.105 19.4198L167.105 19.4215L165.822 27.637L165.821 27.6393C165.777 27.9142 165.893 28.1902 166.121 28.3509L165.806 28.7969L166.121 28.3509C166.348 28.5115 166.647 28.5288 166.891 28.3953L166.892 28.3948L174.208 24.4173C174.735 24.1302 175.37 24.1211 175.905 24.393L183.328 28.164L174.061 0.973206ZM174.061 0.973206L174.063 0.969244M174.061 0.973206L174.063 0.969244M174.063 0.969244C174.182 0.714165 174.436 0.549689 174.718 0.546128C174.999 0.542567 175.257 0.700551 175.383 0.952544L175.383 0.95256M174.063 0.969244L175.383 0.95256M183.357 17.57L183.358 17.569L189.238 11.6741L189.239 11.673C189.436 11.4771 189.504 11.1867 189.416 10.9237C189.327 10.6611 189.098 10.4712 188.824 10.4335C188.823 10.4334 188.823 10.4334 188.822 10.4333L180.564 9.35246L183.357 17.57ZM183.357 17.57C182.934 17.9959 182.748 18.6022 182.858 19.1921L184.379 27.3776C184.43 27.6514 184.321 27.9303 184.098 28.0971C183.875 28.2638 183.577 28.2898 183.328 28.1642L183.357 17.57ZM175.383 0.95256L175.385 0.958214M175.383 0.95256L175.385 0.958214M175.385 0.958214L179.176 8.37392M175.385 0.958214L179.176 8.37392M179.176 8.37392C179.449 8.90884 179.968 9.27486 180.563 9.3524L179.176 8.37392Z" stroke="#FCD269" stroke-width="1.09214"/>
</g>
</svg>
